<svg width="356" height="6" viewBox="0 0 356 6" fill="none" xmlns="http://www.w3.org/2000/svg">
<path d="M0.167318 3C0.167318 4.47276 1.36123 5.66667 2.83398 5.66667C4.30674 5.66667 5.50065 4.47276 5.50065 3C5.50065 1.52724 4.30674 0.333333 2.83398 0.333333C1.36123 0.333333 0.167318 1.52724 0.167318 3ZM350.493 3C350.493 4.47276 351.687 5.66667 353.16 5.66667C354.632 5.66667 355.826 4.47276 355.826 3C355.826 1.52724 354.632 0.333333 353.16 0.333333C351.687 0.333333 350.493 1.52724 350.493 3ZM2.83398 3.5H353.16V2.5H2.83398V3.5Z" fill="#C7F8AB"/>
</svg>
