<svg width="142" height="74" viewBox="0 0 142 74" fill="none" xmlns="http://www.w3.org/2000/svg">
<rect width="142" height="40" rx="8" fill="#EAFACC"/>
<path d="M19.552 21.744L17.752 17.08C17.6987 16.9413 17.6427 16.7813 17.584 16.6C17.5253 16.4133 17.4693 16.216 17.416 16.008C17.304 16.44 17.1893 16.8 17.072 17.088L15.272 21.744H19.552ZM22.784 26H21.584C21.4453 26 21.3333 25.9653 21.248 25.896C21.1627 25.8267 21.0987 25.7387 21.056 25.632L19.984 22.864H14.84L13.768 25.632C13.736 25.728 13.6747 25.8133 13.584 25.888C13.4933 25.9627 13.3813 26 13.248 26H12.048L16.632 14.536H18.2L22.784 26ZM25.5569 14.216V26H24.1329V14.216H25.5569ZM32.4181 22.352C31.7621 22.3733 31.2021 22.4267 30.7381 22.512C30.2795 22.592 29.9035 22.6987 29.6101 22.832C29.3221 22.9653 29.1115 23.1227 28.9781 23.304C28.8501 23.4853 28.7861 23.688 28.7861 23.912C28.7861 24.1253 28.8208 24.3093 28.8901 24.464C28.9595 24.6187 29.0528 24.7467 29.1701 24.848C29.2928 24.944 29.4341 25.016 29.5941 25.064C29.7595 25.1067 29.9355 25.128 30.1221 25.128C30.3728 25.128 30.6021 25.104 30.8101 25.056C31.0181 25.0027 31.2128 24.928 31.3941 24.832C31.5808 24.736 31.7568 24.6213 31.9221 24.488C32.0928 24.3547 32.2581 24.2027 32.4181 24.032V22.352ZM27.8181 19.04C28.2661 18.608 28.7488 18.2853 29.2661 18.072C29.7835 17.8587 30.3568 17.752 30.9861 17.752C31.4395 17.752 31.8421 17.8267 32.1941 17.976C32.5461 18.1253 32.8421 18.3333 33.0821 18.6C33.3221 18.8667 33.5035 19.1893 33.6261 19.568C33.7488 19.9467 33.8101 20.3627 33.8101 20.816V26H33.1781C33.0395 26 32.9328 25.9787 32.8581 25.936C32.7835 25.888 32.7248 25.7973 32.6821 25.664L32.5221 24.896C32.3088 25.0933 32.1008 25.2693 31.8981 25.424C31.6955 25.5733 31.4821 25.7013 31.2581 25.808C31.0341 25.9093 30.7941 25.9867 30.5381 26.04C30.2875 26.0987 30.0075 26.128 29.6981 26.128C29.3835 26.128 29.0875 26.0853 28.8101 26C28.5328 25.9093 28.2901 25.776 28.0821 25.6C27.8795 25.424 27.7168 25.2027 27.5941 24.936C27.4768 24.664 27.4181 24.344 27.4181 23.976C27.4181 23.656 27.5061 23.3493 27.6821 23.056C27.8581 22.7573 28.1435 22.4933 28.5381 22.264C28.9328 22.0347 29.4475 21.848 30.0821 21.704C30.7168 21.5547 31.4955 21.4693 32.4181 21.448V20.816C32.4181 20.1867 32.2821 19.712 32.0101 19.392C31.7381 19.0667 31.3408 18.904 30.8181 18.904C30.4661 18.904 30.1701 18.9493 29.9301 19.04C29.6955 19.1253 29.4901 19.224 29.3141 19.336C29.1435 19.4427 28.9941 19.5413 28.8661 19.632C28.7435 19.7173 28.6208 19.76 28.4981 19.76C28.4021 19.76 28.3195 19.736 28.2501 19.688C28.1808 19.6347 28.1221 19.5707 28.0741 19.496L27.8181 19.04ZM36.1392 26V17.896H36.9952C37.1979 17.896 37.3232 17.9947 37.3712 18.192L37.4752 19.024C37.7739 18.656 38.1099 18.3547 38.4832 18.12C38.8566 17.8853 39.2886 17.768 39.7792 17.768C40.3232 17.768 40.7632 17.92 41.0992 18.224C41.4406 18.528 41.6859 18.9387 41.8352 19.456C41.9526 19.1627 42.1019 18.9093 42.2832 18.696C42.4699 18.4827 42.6779 18.3067 42.9072 18.168C43.1366 18.0293 43.3793 17.928 43.6353 17.864C43.8966 17.8 44.1606 17.768 44.4272 17.768C44.8539 17.768 45.2326 17.8373 45.5632 17.976C45.8993 18.1093 46.1819 18.3067 46.4113 18.568C46.6459 18.8293 46.8246 19.152 46.9473 19.536C47.0699 19.9147 47.1313 20.3493 47.1313 20.84V26H45.6993V20.84C45.6993 20.2053 45.5606 19.7253 45.2832 19.4C45.0059 19.0693 44.6059 18.904 44.0833 18.904C43.8486 18.904 43.6246 18.9467 43.4113 19.032C43.2032 19.112 43.0192 19.232 42.8593 19.392C42.6992 19.552 42.5712 19.7547 42.4752 20C42.3846 20.24 42.3393 20.52 42.3393 20.84V26H40.9072V20.84C40.9072 20.1893 40.7766 19.704 40.5152 19.384C40.2539 19.064 39.8726 18.904 39.3712 18.904C39.0192 18.904 38.6939 19 38.3952 19.192C38.0966 19.3787 37.8219 19.6347 37.5712 19.96V26H36.1392ZM53.8475 22.352C53.1915 22.3733 52.6315 22.4267 52.1675 22.512C51.7088 22.592 51.3328 22.6987 51.0395 22.832C50.7515 22.9653 50.5408 23.1227 50.4075 23.304C50.2795 23.4853 50.2155 23.688 50.2155 23.912C50.2155 24.1253 50.2502 24.3093 50.3195 24.464C50.3888 24.6187 50.4822 24.7467 50.5995 24.848C50.7222 24.944 50.8635 25.016 51.0235 25.064C51.1888 25.1067 51.3648 25.128 51.5515 25.128C51.8022 25.128 52.0315 25.104 52.2395 25.056C52.4475 25.0027 52.6422 24.928 52.8235 24.832C53.0102 24.736 53.1862 24.6213 53.3515 24.488C53.5222 24.3547 53.6875 24.2027 53.8475 24.032V22.352ZM49.2475 19.04C49.6955 18.608 50.1782 18.2853 50.6955 18.072C51.2128 17.8587 51.7862 17.752 52.4155 17.752C52.8688 17.752 53.2715 17.8267 53.6235 17.976C53.9755 18.1253 54.2715 18.3333 54.5115 18.6C54.7515 18.8667 54.9328 19.1893 55.0555 19.568C55.1782 19.9467 55.2395 20.3627 55.2395 20.816V26H54.6075C54.4688 26 54.3622 25.9787 54.2875 25.936C54.2128 25.888 54.1542 25.7973 54.1115 25.664L53.9515 24.896C53.7382 25.0933 53.5302 25.2693 53.3275 25.424C53.1248 25.5733 52.9115 25.7013 52.6875 25.808C52.4635 25.9093 52.2235 25.9867 51.9675 26.04C51.7168 26.0987 51.4368 26.128 51.1275 26.128C50.8128 26.128 50.5168 26.0853 50.2395 26C49.9622 25.9093 49.7195 25.776 49.5115 25.6C49.3088 25.424 49.1462 25.2027 49.0235 24.936C48.9062 24.664 48.8475 24.344 48.8475 23.976C48.8475 23.656 48.9355 23.3493 49.1115 23.056C49.2875 22.7573 49.5728 22.4933 49.9675 22.264C50.3622 22.0347 50.8768 21.848 51.5115 21.704C52.1462 21.5547 52.9248 21.4693 53.8475 21.448V20.816C53.8475 20.1867 53.7115 19.712 53.4395 19.392C53.1675 19.0667 52.7702 18.904 52.2475 18.904C51.8955 18.904 51.5995 18.9493 51.3595 19.04C51.1248 19.1253 50.9195 19.224 50.7435 19.336C50.5728 19.4427 50.4235 19.5413 50.2955 19.632C50.1728 19.7173 50.0502 19.76 49.9275 19.76C49.8315 19.76 49.7488 19.736 49.6795 19.688C49.6102 19.6347 49.5515 19.5707 49.5035 19.496L49.2475 19.04ZM59.9472 26.128C59.3072 26.128 58.8139 25.9493 58.4672 25.592C58.1259 25.2347 57.9552 24.72 57.9552 24.048V19.088H56.9792C56.8939 19.088 56.8219 19.064 56.7632 19.016C56.7046 18.9627 56.6752 18.8827 56.6752 18.776V18.208L58.0032 18.04L58.3312 15.536C58.3472 15.456 58.3819 15.392 58.4352 15.344C58.4939 15.2907 58.5686 15.264 58.6592 15.264H59.3792V18.056H61.7232V19.088H59.3792V23.952C59.3792 24.2933 59.4619 24.5467 59.6272 24.712C59.7926 24.8773 60.0059 24.96 60.2672 24.96C60.4166 24.96 60.5446 24.9413 60.6512 24.904C60.7632 24.8613 60.8592 24.816 60.9392 24.768C61.0192 24.72 61.0859 24.6773 61.1392 24.64C61.1979 24.5973 61.2486 24.576 61.2912 24.576C61.3659 24.576 61.4326 24.6213 61.4912 24.712L61.9072 25.392C61.6619 25.6213 61.3659 25.8027 61.0192 25.936C60.6726 26.064 60.3152 26.128 59.9472 26.128ZM63.3536 26V17.896H64.2096C64.4123 17.896 64.5376 17.9947 64.5856 18.192L64.6896 19.024C64.9883 18.656 65.3243 18.3547 65.6976 18.12C66.071 17.8853 66.503 17.768 66.9936 17.768C67.5376 17.768 67.9776 17.92 68.3136 18.224C68.655 18.528 68.9003 18.9387 69.0496 19.456C69.167 19.1627 69.3163 18.9093 69.4976 18.696C69.6843 18.4827 69.8923 18.3067 70.1216 18.168C70.351 18.0293 70.5936 17.928 70.8496 17.864C71.111 17.8 71.375 17.768 71.6416 17.768C72.0683 17.768 72.447 17.8373 72.7776 17.976C73.1136 18.1093 73.3963 18.3067 73.6256 18.568C73.8603 18.8293 74.039 19.152 74.1616 19.536C74.2843 19.9147 74.3456 20.3493 74.3456 20.84V26H72.9136V20.84C72.9136 20.2053 72.775 19.7253 72.4976 19.4C72.2203 19.0693 71.8203 18.904 71.2976 18.904C71.063 18.904 70.839 18.9467 70.6256 19.032C70.4176 19.112 70.2336 19.232 70.0736 19.392C69.9136 19.552 69.7856 19.7547 69.6896 20C69.599 20.24 69.5536 20.52 69.5536 20.84V26H68.1216V20.84C68.1216 20.1893 67.991 19.704 67.7296 19.384C67.4683 19.064 67.087 18.904 66.5856 18.904C66.2336 18.904 65.9083 19 65.6096 19.192C65.311 19.3787 65.0363 19.6347 64.7856 19.96V26H63.3536ZM83.3339 17.896V26H82.4859C82.2832 26 82.1552 25.9013 82.1019 25.704L81.9899 24.832C81.6379 25.2213 81.2432 25.536 80.8059 25.776C80.3685 26.0107 79.8672 26.128 79.3019 26.128C78.8592 26.128 78.4672 26.056 78.1259 25.912C77.7899 25.7627 77.5072 25.5547 77.2779 25.288C77.0485 25.0213 76.8752 24.6987 76.7579 24.32C76.6459 23.9413 76.5899 23.5227 76.5899 23.064V17.896H78.0139V23.064C78.0139 23.6773 78.1525 24.152 78.4299 24.488C78.7125 24.824 79.1419 24.992 79.7179 24.992C80.1392 24.992 80.5312 24.8933 80.8939 24.696C81.2619 24.4933 81.6005 24.216 81.9099 23.864V17.896H83.3339ZM100.278 20.272C100.278 21.1307 100.142 21.912 99.8695 22.616C99.5975 23.32 99.2135 23.9227 98.7175 24.424C98.2215 24.9253 97.6242 25.3147 96.9255 25.592C96.2322 25.864 95.4642 26 94.6215 26H90.3415V14.536H94.6215C95.4642 14.536 96.2322 14.6747 96.9255 14.952C97.6242 15.224 98.2215 15.6133 98.7175 16.12C99.2135 16.6213 99.5975 17.224 99.8695 17.928C100.142 18.632 100.278 19.4133 100.278 20.272ZM98.6855 20.272C98.6855 19.568 98.5895 18.9387 98.3975 18.384C98.2055 17.8293 97.9335 17.36 97.5815 16.976C97.2295 16.592 96.8028 16.2987 96.3015 16.096C95.8002 15.8933 95.2402 15.792 94.6215 15.792H91.8935V24.744H94.6215C95.2402 24.744 95.8002 24.6427 96.3015 24.44C96.8028 24.2373 97.2295 23.9467 97.5815 23.568C97.9335 23.184 98.2055 22.7147 98.3975 22.16C98.5895 21.6053 98.6855 20.976 98.6855 20.272ZM103.685 17.896V26H102.261V17.896H103.685ZM103.989 15.352C103.989 15.4907 103.96 15.6213 103.901 15.744C103.848 15.8613 103.773 15.968 103.677 16.064C103.586 16.1547 103.477 16.2267 103.349 16.28C103.226 16.3333 103.096 16.36 102.957 16.36C102.818 16.36 102.688 16.3333 102.565 16.28C102.448 16.2267 102.344 16.1547 102.253 16.064C102.162 15.968 102.09 15.8613 102.037 15.744C101.984 15.6213 101.957 15.4907 101.957 15.352C101.957 15.2133 101.984 15.0827 102.037 14.96C102.09 14.832 102.162 14.7227 102.253 14.632C102.344 14.536 102.448 14.4613 102.565 14.408C102.688 14.3547 102.818 14.328 102.957 14.328C103.096 14.328 103.226 14.3547 103.349 14.408C103.477 14.4613 103.586 14.536 103.677 14.632C103.773 14.7227 103.848 14.832 103.901 14.96C103.96 15.0827 103.989 15.2133 103.989 15.352ZM110.905 19.232C110.841 19.3493 110.742 19.408 110.609 19.408C110.529 19.408 110.438 19.3787 110.337 19.32C110.236 19.2613 110.11 19.1973 109.961 19.128C109.817 19.0533 109.644 18.9867 109.441 18.928C109.238 18.864 108.998 18.832 108.721 18.832C108.481 18.832 108.265 18.864 108.073 18.928C107.881 18.9867 107.716 19.0693 107.577 19.176C107.444 19.2827 107.34 19.408 107.265 19.552C107.196 19.6907 107.161 19.8427 107.161 20.008C107.161 20.216 107.22 20.3893 107.337 20.528C107.46 20.6667 107.62 20.7867 107.817 20.888C108.014 20.9893 108.238 21.08 108.489 21.16C108.74 21.2347 108.996 21.3173 109.257 21.408C109.524 21.4933 109.782 21.5893 110.033 21.696C110.284 21.8027 110.508 21.936 110.705 22.096C110.902 22.256 111.06 22.4533 111.177 22.688C111.3 22.9173 111.361 23.1947 111.361 23.52C111.361 23.8933 111.294 24.24 111.161 24.56C111.028 24.8747 110.83 25.1493 110.569 25.384C110.308 25.6133 109.988 25.7947 109.609 25.928C109.23 26.0613 108.793 26.128 108.297 26.128C107.732 26.128 107.22 26.0373 106.761 25.856C106.302 25.6693 105.913 25.432 105.593 25.144L105.929 24.6C105.972 24.5307 106.022 24.4773 106.081 24.44C106.14 24.4027 106.214 24.384 106.305 24.384C106.401 24.384 106.502 24.4213 106.609 24.496C106.716 24.5707 106.844 24.6533 106.993 24.744C107.148 24.8347 107.334 24.9173 107.553 24.992C107.772 25.0667 108.044 25.104 108.369 25.104C108.646 25.104 108.889 25.0693 109.097 25C109.305 24.9253 109.478 24.8267 109.617 24.704C109.756 24.5813 109.857 24.44 109.921 24.28C109.99 24.12 110.025 23.9493 110.025 23.768C110.025 23.544 109.964 23.36 109.841 23.216C109.724 23.0667 109.566 22.9413 109.369 22.84C109.172 22.7333 108.945 22.6427 108.689 22.568C108.438 22.488 108.18 22.4053 107.913 22.32C107.652 22.2347 107.393 22.1387 107.137 22.032C106.886 21.92 106.662 21.7813 106.465 21.616C106.268 21.4507 106.108 21.248 105.985 21.008C105.868 20.7627 105.809 20.4667 105.809 20.12C105.809 19.8107 105.873 19.5147 106.001 19.232C106.129 18.944 106.316 18.6933 106.561 18.48C106.806 18.2613 107.108 18.088 107.465 17.96C107.822 17.832 108.23 17.768 108.689 17.768C109.222 17.768 109.7 17.8533 110.121 18.024C110.548 18.1893 110.916 18.4187 111.225 18.712L110.905 19.232ZM114.771 17.896V26H113.347V17.896H114.771ZM115.075 15.352C115.075 15.4907 115.045 15.6213 114.987 15.744C114.933 15.8613 114.859 15.968 114.763 16.064C114.672 16.1547 114.563 16.2267 114.435 16.28C114.312 16.3333 114.181 16.36 114.043 16.36C113.904 16.36 113.773 16.3333 113.651 16.28C113.533 16.2267 113.429 16.1547 113.339 16.064C113.248 15.968 113.176 15.8613 113.123 15.744C113.069 15.6213 113.043 15.4907 113.043 15.352C113.043 15.2133 113.069 15.0827 113.123 14.96C113.176 14.832 113.248 14.7227 113.339 14.632C113.429 14.536 113.533 14.4613 113.651 14.408C113.773 14.3547 113.904 14.328 114.043 14.328C114.181 14.328 114.312 14.3547 114.435 14.408C114.563 14.4613 114.672 14.536 114.763 14.632C114.859 14.7227 114.933 14.832 114.987 14.96C115.045 15.0827 115.075 15.2133 115.075 15.352ZM118.615 19.072C118.791 18.8747 118.977 18.696 119.175 18.536C119.372 18.376 119.58 18.24 119.799 18.128C120.023 18.0107 120.257 17.9227 120.503 17.864C120.753 17.8 121.023 17.768 121.311 17.768C121.753 17.768 122.143 17.8427 122.479 17.992C122.82 18.136 123.103 18.344 123.327 18.616C123.556 18.8827 123.729 19.2053 123.847 19.584C123.964 19.9627 124.023 20.3813 124.023 20.84V26H122.591V20.84C122.591 20.2267 122.449 19.752 122.167 19.416C121.889 19.0747 121.465 18.904 120.895 18.904C120.473 18.904 120.079 19.0053 119.711 19.208C119.348 19.4107 119.012 19.6853 118.703 20.032V26H117.271V17.896H118.127C118.329 17.896 118.455 17.9947 118.503 18.192L118.615 19.072ZM127.856 17.896V26H126.432V17.896H127.856ZM128.16 15.352C128.16 15.4907 128.131 15.6213 128.072 15.744C128.019 15.8613 127.944 15.968 127.848 16.064C127.758 16.1547 127.648 16.2267 127.52 16.28C127.398 16.3333 127.267 16.36 127.128 16.36C126.99 16.36 126.859 16.3333 126.736 16.28C126.619 16.2267 126.515 16.1547 126.424 16.064C126.334 15.968 126.262 15.8613 126.208 15.744C126.155 15.6213 126.128 15.4907 126.128 15.352C126.128 15.2133 126.155 15.0827 126.208 14.96C126.262 14.832 126.334 14.7227 126.424 14.632C126.515 14.536 126.619 14.4613 126.736 14.408C126.859 14.3547 126.99 14.328 127.128 14.328C127.267 14.328 127.398 14.3547 127.52 14.408C127.648 14.4613 127.758 14.536 127.848 14.632C127.944 14.7227 128.019 14.832 128.072 14.96C128.131 15.0827 128.16 15.2133 128.16 15.352Z" fill="#4EA40F"/>
<path d="M70.2076 46.9706C70.6079 47.4906 71.3921 47.4906 71.7924 46.9706L78.4209 38.36C78.9271 37.7024 78.4583 36.75 77.6285 36.75H64.3715C63.5417 36.75 63.0729 37.7024 63.5791 38.36L70.2076 46.9706Z" fill="#EAFACC"/>
<mask id="mask0_1979_10772" style="mask-type:alpha" maskUnits="userSpaceOnUse" x="59" y="50" width="24" height="24">
<rect x="59" y="50" width="24" height="24" fill="#D9D9D9"/>
</mask>
<g mask="url(#mask0_1979_10772)">
<path d="M71 72C69.2333 72 67.7917 71.7208 66.675 71.1625C65.5583 70.6042 65 69.8833 65 69C65 68.6 65.1208 68.2292 65.3625 67.8875C65.6042 67.5458 65.9417 67.25 66.375 67L67.95 68.475C67.8 68.5417 67.6375 68.6167 67.4625 68.7C67.2875 68.7833 67.15 68.8833 67.05 69C67.2667 69.2667 67.7667 69.5 68.55 69.7C69.3333 69.9 70.15 70 71 70C71.85 70 72.6708 69.9 73.4625 69.7C74.2542 69.5 74.7583 69.2667 74.975 69C74.8583 68.8667 74.7083 68.7583 74.525 68.675C74.3417 68.5917 74.1667 68.5167 74 68.45L75.55 66.95C76.0167 67.2167 76.375 67.5208 76.625 67.8625C76.875 68.2042 77 68.5833 77 69C77 69.8833 76.4417 70.6042 75.325 71.1625C74.2083 71.7208 72.7667 72 71 72ZM71 69C68.65 67.2667 66.8958 65.5833 65.7375 63.95C64.5792 62.3167 64 60.7167 64 59.15C64 57.9667 64.2125 56.9292 64.6375 56.0375C65.0625 55.1458 65.6083 54.4 66.275 53.8C66.9417 53.2 67.6917 52.75 68.525 52.45C69.3583 52.15 70.1833 52 71 52C71.8167 52 72.6417 52.15 73.475 52.45C74.3083 52.75 75.0583 53.2 75.725 53.8C76.3917 54.4 76.9375 55.1458 77.3625 56.0375C77.7875 56.9292 78 57.9667 78 59.15C78 60.7167 77.4208 62.3167 76.2625 63.95C75.1042 65.5833 73.35 67.2667 71 69ZM71 61C71.55 61 72.0208 60.8042 72.4125 60.4125C72.8042 60.0208 73 59.55 73 59C73 58.45 72.8042 57.9792 72.4125 57.5875C72.0208 57.1958 71.55 57 71 57C70.45 57 69.9792 57.1958 69.5875 57.5875C69.1958 57.9792 69 58.45 69 59C69 59.55 69.1958 60.0208 69.5875 60.4125C69.9792 60.8042 70.45 61 71 61Z" fill="#4EA40F"/>
</g>
</svg>
