<svg width="60" height="68" viewBox="0 0 60 68" fill="none" xmlns="http://www.w3.org/2000/svg" >
    <path
	    d="M8.1219 58.2785V27.9251L3.20781 32.3769L0 27.2776L29.9623 0L59.9929 27.1966L56.7168 32.3769L29.9623 8.09423L13.582 22.9876V51.8031H24.5022V58.2785H8.1219ZM44.9776 65.968C43.0666 67.5329 40.9621 68.1939 38.6643 67.9511C36.3666 67.7082 34.3986 66.6155 32.7606 64.6729C31.1226 62.7303 30.2012 60.3965 29.9964 57.6714C29.7917 54.9463 30.3491 52.4506 31.6686 50.1842C30.3491 47.9178 29.7917 45.4221 29.9964 42.6971C30.2012 39.972 31.1226 37.6382 32.7606 35.6956C34.3986 33.7529 36.3666 32.6602 38.6643 32.4174C40.9621 32.1746 43.0666 32.8356 44.9776 34.4005C46.8886 32.8356 48.993 32.1746 51.2908 32.4174C53.5886 32.6602 55.5565 33.7529 57.1946 35.6956C58.8326 37.6382 59.754 39.972 59.9587 42.6971C60.1635 45.4221 59.6061 47.9178 58.2866 50.1842C59.6061 52.4506 60.1635 54.9463 59.9587 57.6714C59.754 60.3965 58.8326 62.7303 57.1946 64.6729C55.5565 66.6155 53.5886 67.7082 51.2908 67.9511C48.993 68.1939 46.8886 67.5329 44.9776 65.968ZM44.9776 58.0356L48.1171 60.6258C48.9362 61.3273 49.8234 61.6241 50.7789 61.5162C51.7345 61.4082 52.5762 60.9226 53.3042 60.0592C54.0323 59.1958 54.4418 58.1975 54.5328 57.0643C54.6238 55.9311 54.3735 54.8789 53.782 53.9076L51.598 50.1842L53.782 46.4609C54.3735 45.4896 54.6238 44.4373 54.5328 43.3041C54.4418 42.1709 54.0323 41.1727 53.3042 40.3093C52.5762 39.4459 51.7345 38.9602 50.7789 38.8523C49.8234 38.7444 48.9362 39.0412 48.1171 39.7427L44.9776 42.3328L41.838 39.7427C41.019 39.0412 40.1317 38.7444 39.1762 38.8523C38.2207 38.9602 37.3789 39.4459 36.6509 40.3093C35.9229 41.1727 35.5134 42.1709 35.4224 43.3041C35.3314 44.4373 35.5817 45.4896 36.1732 46.4609L38.3572 50.1842L36.1732 53.9076C35.5817 54.8789 35.3314 55.9311 35.4224 57.0643C35.5134 58.1975 35.9229 59.1958 36.6509 60.0592C37.3789 60.9226 38.2207 61.4082 39.1762 61.5162C40.1317 61.6241 41.019 61.3273 41.838 60.6258L44.9776 58.0356ZM44.9776 54.2313C45.9331 54.2313 46.7407 53.8401 47.4005 53.0577C48.0603 52.2752 48.3902 51.3174 48.3902 50.1842C48.3902 49.051 48.0603 48.0932 47.4005 47.3108C46.7407 46.5283 45.9331 46.1371 44.9776 46.1371C44.0221 46.1371 43.2144 46.5283 42.5547 47.3108C41.8949 48.0932 41.565 49.051 41.565 50.1842C41.565 51.3174 41.8949 52.2752 42.5547 53.0577C43.2144 53.8401 44.0221 54.2313 44.9776 54.2313Z"
	    fill="#AAE367"
    />
</svg>