<svg width="60" height="68" viewBox="0 0 60 68" fill="none" xmlns="http://www.w3.org/2000/svg">
<path d="M30 25.9048C30.9444 25.9048 31.7361 25.5944 32.375 24.9738C33.0139 24.3532 33.3333 23.5841 33.3333 22.6667C33.3333 21.7492 33.0139 20.9802 32.375 20.3595C31.7361 19.7389 30.9444 19.4286 30 19.4286C29.0556 19.4286 28.2639 19.7389 27.625 20.3595C26.9861 20.9802 26.6667 21.7492 26.6667 22.6667C26.6667 23.5841 26.9861 24.3532 27.625 24.9738C28.2639 25.5944 29.0556 25.9048 30 25.9048ZM30 45.3333C27.8333 45.3333 25.875 44.7532 24.125 43.5929C22.375 42.4325 21.1111 40.9079 20.3333 39.0191C20.0556 39.0191 19.8056 39.0325 19.5833 39.0595C19.3611 39.0865 19.1111 39.1 18.8333 39.1C15.9444 39.1 13.4722 38.1016 11.4167 36.1048C9.36111 34.1079 8.33333 31.7064 8.33333 28.9C8.33333 27.7667 8.52778 26.6738 8.91667 25.6214C9.30556 24.569 9.88889 23.5841 10.6667 22.6667C9.94444 21.7492 9.38889 20.7643 9 19.7119C8.61111 18.6595 8.41667 17.5667 8.41667 16.4333C8.41667 13.627 9.43056 11.2254 11.4583 9.22857C13.4861 7.23175 15.9444 6.23333 18.8333 6.23333C19.1111 6.23333 19.3611 6.24683 19.5833 6.27381C19.8056 6.30079 20.0556 6.31429 20.3333 6.31429C21.1111 4.4254 22.375 2.90079 24.125 1.74048C25.875 0.580159 27.8333 0 30 0C32.1667 0 34.125 0.580159 35.875 1.74048C37.625 2.90079 38.8889 4.4254 39.6667 6.31429C39.9444 6.31429 40.1944 6.30079 40.4167 6.27381C40.6389 6.24683 40.8889 6.23333 41.1667 6.23333C44.0556 6.23333 46.5139 7.23175 48.5417 9.22857C50.5694 11.2254 51.5833 13.627 51.5833 16.4333C51.5833 17.5667 51.4028 18.6595 51.0417 19.7119C50.6806 20.7643 50.1111 21.7492 49.3333 22.6667C50.0556 23.5841 50.6111 24.569 51 25.6214C51.3889 26.6738 51.5833 27.7667 51.5833 28.9C51.5833 31.7064 50.5694 34.1079 48.5417 36.1048C46.5139 38.1016 44.0556 39.1 41.1667 39.1C40.8889 39.1 40.6389 39.0865 40.4167 39.0595C40.1944 39.0325 39.9444 39.0191 39.6667 39.0191C38.8889 40.9079 37.625 42.4325 35.875 43.5929C34.125 44.7532 32.1667 45.3333 30 45.3333ZM30 68C30 64.0063 30.7917 60.2421 32.375 56.7071C33.9583 53.1722 36.1111 50.0825 38.8333 47.4381C41.5556 44.7937 44.7361 42.7024 48.375 41.1643C52.0139 39.6262 55.8889 38.8571 60 38.8571C60 42.8508 59.2083 46.6151 57.625 50.15C56.0417 53.6849 53.8889 56.7746 51.1667 59.419C48.4444 62.0635 45.2639 64.1548 41.625 65.6929C37.9861 67.231 34.1111 68 30 68ZM38.1667 60.0667C41.3333 58.9333 44.1111 57.2064 46.5 54.8857C48.8889 52.5651 50.6667 49.8667 51.8333 46.7905C48.6667 47.9238 45.8889 49.6508 43.5 51.9714C41.1111 54.2921 39.3333 56.9905 38.1667 60.0667ZM30 68C30 64.0063 29.2083 60.2421 27.625 56.7071C26.0417 53.1722 23.8889 50.0825 21.1667 47.4381C18.4444 44.7937 15.2639 42.7024 11.625 41.1643C7.98611 39.6262 4.11111 38.8571 0 38.8571C0 42.8508 0.791667 46.6151 2.375 50.15C3.95833 53.6849 6.11111 56.7746 8.83333 59.419C11.5556 62.0635 14.7361 64.1548 18.375 65.6929C22.0139 67.231 25.8889 68 30 68ZM21.8333 60.0667C18.6667 58.9333 15.8889 57.2064 13.5 54.8857C11.1111 52.5651 9.33333 49.8667 8.16667 46.7905C11.3333 47.9238 14.1111 49.6508 16.5 51.9714C18.8889 54.2921 20.6667 56.9905 21.8333 60.0667ZM41.1667 32.6238C42.2222 32.6238 43.125 32.2595 43.875 31.531C44.625 30.8024 45 29.9254 45 28.9C45 28.1444 44.7917 27.4833 44.375 26.9167C43.9583 26.35 43.4167 25.9048 42.75 25.581L39.8333 24.2048C39.7222 24.7984 39.5556 25.3786 39.3333 25.9452C39.1111 26.5119 38.8611 27.0381 38.5833 27.5238C38.3056 28.0095 37.9722 28.4683 37.5833 28.9C37.1944 29.3317 36.7778 29.7365 36.3333 30.1143L39 31.9762C39.2778 32.1921 39.5972 32.354 39.9583 32.4619C40.3194 32.5698 40.7222 32.6238 41.1667 32.6238ZM39.8333 21.1286L42.75 19.7524C43.4167 19.4286 43.9444 18.9698 44.3333 18.3762C44.7222 17.7825 44.9167 17.1349 44.9167 16.4333C44.9167 15.4079 44.5556 14.531 43.8333 13.8024C43.1111 13.0738 42.2222 12.7095 41.1667 12.7095C40.7222 12.7095 40.3333 12.7635 40 12.8714C39.6667 12.9794 39.3333 13.1413 39 13.3571L36.25 15.219C36.6944 15.5968 37.125 16.0016 37.5417 16.4333C37.9583 16.8651 38.3056 17.3238 38.5833 17.8095C38.8611 18.2952 39.1111 18.8214 39.3333 19.3881C39.5556 19.9548 39.7222 20.5349 39.8333 21.1286ZM26.5833 13.6C27.1389 13.3841 27.6944 13.2222 28.25 13.1143C28.8056 13.0063 29.3889 12.9524 30 12.9524C30.6111 12.9524 31.1944 13.0063 31.75 13.1143C32.3056 13.2222 32.8611 13.3841 33.4167 13.6L33.8333 10.0381C33.9444 9.06667 33.5972 8.23016 32.7917 7.52857C31.9861 6.82698 31.0556 6.47619 30 6.47619C28.9444 6.47619 28.0139 6.82698 27.2083 7.52857C26.4028 8.23016 26.0556 9.06667 26.1667 10.0381L26.5833 13.6ZM30 38.8571C31.0556 38.8571 31.9861 38.5064 32.7917 37.8048C33.5972 37.1032 33.9444 36.2667 33.8333 35.2952L33.4167 31.7333C32.8611 31.9492 32.3056 32.1111 31.75 32.219C31.1944 32.327 30.6111 32.381 30 32.381C29.3889 32.381 28.8056 32.327 28.25 32.219C27.6944 32.1111 27.1389 31.9492 26.5833 31.7333L26.1667 35.2952C26.0556 36.2667 26.4028 37.1032 27.2083 37.8048C28.0139 38.5064 28.9444 38.8571 30 38.8571ZM20.1667 21.1286C20.2778 20.5349 20.4444 19.9548 20.6667 19.3881C20.8889 18.8214 21.1389 18.2952 21.4167 17.8095C21.6944 17.3238 22.0278 16.8651 22.4167 16.4333C22.8056 16.0016 23.2222 15.5968 23.6667 15.219L21 13.3571C20.7222 13.1413 20.4028 12.9794 20.0417 12.8714C19.6806 12.7635 19.2778 12.7095 18.8333 12.7095C17.7778 12.7095 16.875 13.0738 16.125 13.8024C15.375 14.531 15 15.4079 15 16.4333C15 17.1349 15.2083 17.7825 15.625 18.3762C16.0417 18.9698 16.5833 19.4286 17.25 19.7524L20.1667 21.1286ZM18.8333 32.5429C19.2778 32.5429 19.6667 32.5024 20 32.4214C20.3333 32.3405 20.6667 32.1651 21 31.8952L23.75 30.1143C23.3056 29.7365 22.875 29.3317 22.4583 28.9C22.0417 28.4683 21.6944 28.0095 21.4167 27.5238C21.1389 27.0381 20.8889 26.5119 20.6667 25.9452C20.4444 25.3786 20.2778 24.7984 20.1667 24.2048L17.25 25.581C16.5833 25.9048 16.0556 26.3635 15.6667 26.9571C15.2778 27.5508 15.0833 28.1984 15.0833 28.9C15.1389 29.9254 15.5139 30.7889 16.2083 31.4905C16.9028 32.1921 17.7778 32.5429 18.8333 32.5429Z" fill="#AAE367"/>
</svg>
